<?xml version="1.0" standalone="no"?>
<!DOCTYPE svg PUBLIC "-//W3C//DTD SVG 20010904//EN"
 "http://www.w3.org/TR/2001/REC-SVG-20010904/DTD/svg10.dtd">
<svg version="1.0" xmlns="http://www.w3.org/2000/svg"
 width="700.000000pt" height="700.000000pt" viewBox="0 0 700.000000 700.000000"
 preserveAspectRatio="xMidYMid meet">
<metadata>
Created by potrace 1.14, written by Peter Selinger 2001-2017
</metadata>
<g transform="translate(0.000000,700.000000) scale(0.100000,-0.100000)"
fill="#000000" stroke="none">
<path d="M3420 6935 c-40 -22 -414 -204 -672 -329 -54 -26 -101 -52 -105 -59
-4 -7 -10 -196 -13 -420 l-5 -409 -74 -39 c-85 -45 -243 -129 -316 -169 -27
-15 -99 -53 -160 -85 -60 -32 -115 -62 -120 -66 -6 -5 -16 3 -23 20 -9 21 -39
40 -129 84 -65 31 -253 121 -417 201 -181 89 -307 144 -320 142 -12 -2 -120
-52 -241 -111 -121 -59 -303 -148 -405 -197 -102 -49 -191 -97 -198 -106 -16
-21 -18 -993 -2 -1023 6 -10 57 -41 113 -68 56 -27 223 -108 370 -180 148 -72
273 -131 278 -131 5 0 10 -3 11 -7 1 -5 2 -221 3 -481 l2 -473 -111 -53 c-61
-30 -227 -111 -370 -180 -142 -69 -262 -126 -267 -126 -4 0 -15 -10 -23 -22
-14 -20 -16 -86 -16 -519 l0 -496 26 -27 c15 -14 30 -26 34 -26 6 0 388 -184
685 -331 55 -27 108 -49 118 -49 19 0 86 31 487 227 146 72 284 138 305 149
48 22 65 37 65 58 0 9 5 16 10 16 11 0 108 -50 310 -160 58 -32 141 -76 185
-100 44 -23 106 -56 138 -74 l57 -31 1 -390 c1 -214 2 -394 3 -400 3 -22 26
-51 48 -62 13 -7 109 -53 213 -104 105 -50 278 -134 385 -187 107 -52 204 -95
215 -95 11 -1 70 23 130 53 580 281 714 350 724 368 7 14 11 150 11 419 l0
399 53 27 c28 15 90 48 137 73 47 25 128 69 180 96 52 28 144 77 203 110 59
32 111 58 115 58 4 0 12 -10 17 -22 7 -16 62 -49 181 -108 366 -182 657 -320
675 -320 10 0 44 13 76 29 52 26 163 81 630 307 83 40 137 73 144 86 19 35 16
1002 -2 1024 -7 9 -49 33 -94 54 -44 21 -201 97 -349 169 -147 72 -282 138
-300 146 l-31 15 0 474 0 475 130 62 c495 238 635 309 646 330 17 32 17 985 0
1016 -6 12 -42 36 -79 54 -37 18 -173 84 -302 147 -333 162 -432 209 -457 216
-25 8 -20 10 -418 -184 -137 -67 -291 -142 -342 -166 -52 -25 -99 -55 -110
-70 l-20 -27 -109 58 c-60 32 -113 61 -119 65 -5 4 -68 38 -140 75 -71 37
-134 71 -140 75 -5 4 -47 26 -92 50 l-83 42 0 400 c0 266 -4 406 -11 419 -6
12 -84 56 -192 109 -100 48 -285 138 -411 199 -126 61 -240 111 -255 110 -14
0 -46 -11 -71 -24z m-631 -1497 c69 -33 254 -123 410 -199 156 -77 290 -139
297 -139 7 0 124 55 261 121 136 67 321 156 410 199 106 52 167 87 178 104
l16 25 52 -28 c29 -16 180 -97 337 -181 157 -84 290 -156 295 -160 13 -11 12
-697 -1 -709 -5 -5 -58 -35 -119 -67 -60 -32 -132 -71 -160 -86 -27 -15 -66
-35 -85 -45 -19 -9 -62 -32 -95 -51 -32 -18 -114 -62 -181 -98 l-122 -64 -248
121 c-137 67 -308 150 -381 185 -72 35 -143 64 -156 64 -14 0 -141 -57 -283
-126 -143 -69 -314 -153 -382 -185 l-123 -59 -207 106 c-114 59 -287 148 -385
198 l-177 91 2 363 3 363 90 48 c140 74 264 141 330 176 33 18 101 54 150 80
50 26 94 52 100 57 6 5 17 -1 29 -17 11 -17 68 -50 145 -87z m2572 -1227 c134
-65 297 -144 362 -175 64 -31 117 -60 117 -64 1 -11 1 -831 1 -890 l-1 -53
-222 -108 c-123 -59 -286 -138 -362 -176 l-140 -67 -50 25 c-57 29 -229 121
-321 171 -33 19 -100 55 -150 81 -49 26 -123 65 -162 87 l-73 39 0 423 0 422
38 21 c20 11 71 38 112 60 269 144 521 280 555 299 22 13 43 23 46 24 4 0 116
-53 250 -119z m-3350 35 c79 -41 250 -129 379 -195 l235 -120 0 -427 0 -426
-95 -50 c-444 -231 -656 -338 -670 -338 -5 0 -107 48 -227 106 -120 59 -278
135 -350 170 l-133 64 0 473 0 473 223 109 c122 60 280 137 352 172 71 35 133
63 136 63 3 0 71 -33 150 -74z m1004 -1446 c466 -227 475 -231 496 -225 12 4
69 31 128 60 131 65 388 190 536 260 l110 53 65 -35 c36 -20 128 -69 205 -111
77 -41 167 -89 200 -107 33 -18 113 -60 178 -95 64 -35 117 -68 118 -74 3 -35
4 -674 1 -688 -2 -9 -11 -19 -20 -21 -10 -3 -53 -25 -97 -49 -101 -55 -228
-124 -336 -181 -46 -25 -118 -63 -158 -85 l-75 -40 -19 24 c-10 13 -64 46
-120 73 -91 44 -267 129 -601 291 -59 29 -118 52 -130 52 -22 0 -97 -35 -540
-251 -147 -72 -272 -131 -277 -131 -5 0 -18 -13 -30 -29 l-22 -30 -61 33 c-34
18 -97 53 -141 76 -44 24 -107 57 -140 75 -33 18 -94 51 -135 73 -41 22 -104
56 -140 75 l-65 36 0 361 0 361 50 28 c42 23 441 229 654 337 l64 33 36 -18
c20 -11 140 -69 266 -131z"/>
</g>
</svg>
